<svg width="94" height="42" viewBox="0 0 94 42" fill="none" xmlns="http://www.w3.org/2000/svg">
<g clip-path="url(#clip0_224_1407)">
<path d="M56.2927 15.5002H44.0584C42.7911 15.5002 40.906 17.2064 41.3506 18.5041H67.8716C68.1776 18.5041 68.3595 15.8874 68.5183 15.2973C70.6747 7.28414 81.6128 4.36567 88.4314 9.49769C96.8782 15.8526 93.0417 28.1246 82.5741 29.903C76.2838 29.5558 69.3064 30.421 63.0969 29.927C61.3215 29.7855 59.6471 29.0165 58.3654 27.895C58.045 27.6146 56.7488 25.9244 56.6102 25.9164C56.1195 25.8951 56.3331 27.6253 56.2725 28.0018C56.1628 28.6747 55.1524 29.9163 54.4451 29.9163H28.1406V34.4235C28.1406 37.4034 23.7555 41.3339 20.6696 41.3339H15.583V18.8032C15.583 16.3119 19.9276 12.4936 22.621 12.4936H28.1406V18.3012H31.8213C32.2312 4.87833 52.4706 2.50991 56.2869 15.4975L56.2927 15.5002ZM83.6249 18.4587C83.6249 16.886 82.245 15.6097 80.5447 15.6097C78.8444 15.6097 77.4645 16.886 77.4645 18.4587C77.4645 20.0314 78.8444 21.3078 80.5447 21.3078C82.245 21.3078 83.6249 20.0314 83.6249 18.4587Z" fill="#036C80"/>
<path d="M12.5576 12.4963V34.6265C12.5576 37.4007 8.32265 41.3339 5.30594 41.3339H0V19.0061C0 16.3226 4.35041 12.4963 7.25164 12.4963H12.5576Z" fill="#036C80"/>
<path d="M23.028 9.41491C25.8388 9.41491 28.1175 7.3073 28.1175 4.70744C28.1175 2.10758 25.8388 -3.05176e-05 23.028 -3.05176e-05C20.2172 -3.05176e-05 17.9386 2.10758 17.9386 4.70744C17.9386 7.3073 20.2172 9.41491 23.028 9.41491Z" fill="#036C80"/>
<path d="M9.70545 8.85688C5.31751 10.9343 0.658212 7.70605 2.00057 3.23088C2.75114 0.728957 6.80998 -0.918525 9.20603 0.675553C9.41965 3.40444 9.94505 6.11197 9.70545 8.85688Z" fill="#13B3B0"/>
</g>
<defs>
<clipPath id="clip0_224_1407">
<rect width="93.056" height="41.3339" fill="white"/>
</clipPath>
</defs>
</svg>
